<svg width="526" height="230" xmlns="http://www.w3.org/2000/svg" xmlns:xlink="http://www.w3.org/1999/xlink" overflow="hidden"><defs><clipPath id="clip0"><path d="M0 0 526 0 526 230 0 230Z" fill-rule="evenodd" clip-rule="evenodd"/></clipPath><clipPath id="clip1"><path d="M172 79 303 79 303 198 172 198Z" fill-rule="evenodd" clip-rule="evenodd"/></clipPath><clipPath id="clip2"><path d="M172 79 303 79 303 198 172 198Z" fill-rule="evenodd" clip-rule="evenodd"/></clipPath><clipPath id="clip3"><path d="M172 79 303 79 303 198 172 198Z" fill-rule="evenodd" clip-rule="evenodd"/></clipPath><clipPath id="clip4"><path d="M365 12 424 12 424 68 365 68Z" fill-rule="evenodd" clip-rule="evenodd"/></clipPath><clipPath id="clip5"><path d="M365 12 424 12 424 68 365 68Z" fill-rule="evenodd" clip-rule="evenodd"/></clipPath><clipPath id="clip6"><path d="M365 12 424 12 424 68 365 68Z" fill-rule="evenodd" clip-rule="evenodd"/></clipPath></defs><g clip-path="url(#clip0)"><rect x="0" y="0" width="525.239" height="230" fill="#FFFFFF" transform="scale(1.00145 1)"/><text fill="#404040" font-family="Calibri,Calibri_MSFontService,sans-serif" font-weight="400" font-size="14" transform="matrix(1 0 0 0.998553 197.167 0)">size –<tspan x="34" y="0">526 by 526 pixels</tspan></text><rect x="0" y="0" width="525.239" height="230" fill="#F2F2F2" transform="scale(1.00145 1)"/><path d="M0.0211636 148.867C-0.605989 113.602 12.7919 79.3162 37.7546 52.3042L60.4533 69.6154C39.2979 91.5305 27.9115 119.577 28.4479 148.449Z" fill="#D0D0D0" fill-rule="evenodd" transform="matrix(1.00145 0 -0 1 76 36)"/><path d="M41.4344 48.46C69.5276 20.1226 108.677 2.85369 150.564 0.322834L152.632 28.568C118.528 30.5411 86.5883 44.1133 63.444 66.4671Z" fill="#D0D0D0" fill-rule="evenodd" transform="matrix(1.00145 0 -0 1 76 36)"/><path d="M155.973 0.0790106C199.557-1.22119 241.863 13.5682 273.243 41.075L253.659 59.513C227.602 37.5806 192.784 25.8212 156.941 26.848Z" fill="#D0D0D0" fill-rule="evenodd" transform="matrix(1.00145 0 -0 1 76 36)"/><path d="M277.325 44.7828C306.915 72.6454 323.162 110.016 322.514 148.727L294.576 148.341C295.131 116.561 281.313 85.9135 256.224 63.2763Z" fill="#695934" fill-rule="evenodd" transform="matrix(1.00145 0 -0 1 76 36)"/><g clip-path="url(#clip1)"><g clip-path="url(#clip2)"><g clip-path="url(#clip3)"><path d="M117.901 53.9582 61.901 3.88087C61.8031 3.78297 61.7052 3.70954 61.5828 3.63611 60.3591 2.46128 58.401 2.41233 57.1038 3.56268L1.10336 53.64C-0.267275 54.8638-0.365178 56.9442 0.834132 58.3148 1.49498 59.0491 2.40058 59.4163 3.30618 59.4163 4.0894 59.4163 4.87262 59.147 5.50899 58.5841L15.593 49.5525 15.593 51.3148 15.593 77.4548 15.593 107.952C15.593 112.529 19.3133 116.273 23.9147 116.273 23.9882 116.273 24.0371 116.273 24.1105 116.273 24.184 116.273 24.2329 116.273 24.3063 116.273L41.5862 116.273C45.8939 116.273 49.3939 112.773 49.3939 108.466L49.3939 78.7765C49.3939 78.1157 49.9324 77.5772 50.5933 77.5772L68.436 77.5772C69.0969 77.5772 69.6354 78.1157 69.6354 78.7765L69.6354 108.466C69.6354 112.773 73.1354 116.273 77.4431 116.273L95.1146 116.273C99.765 116.273 103.436 111.696 103.436 105.847L103.436 78.6297 103.436 70.3079 103.436 49.8707 113.52 58.9023C114.157 59.4652 114.94 59.7344 115.723 59.7344 116.629 59.7344 117.534 59.3673 118.195 58.633 119.37 57.2624 119.248 55.182 117.901 53.9582ZM96.8034 70.2835 96.8034 78.6052 96.8034 105.798C96.8034 108.172 95.6286 109.616 95.0901 109.616L77.4186 109.616C76.7578 109.616 76.2193 109.077 76.2193 108.417L76.2193 78.7765C76.2193 74.4688 72.7193 70.9688 68.4116 70.9688L50.5688 70.9688C46.261 70.9688 42.761 74.4688 42.761 78.7765L42.761 108.466C42.761 109.126 42.2226 109.665 41.5617 109.665L24.2819 109.665C24.2084 109.665 24.1595 109.665 24.0861 109.665 24.0126 109.665 23.9637 109.665 23.8903 109.665 22.9602 109.665 22.177 108.906 22.177 107.952L22.177 77.4304 22.177 51.2903 22.177 43.6294 59.3311 10.4404 96.8034 43.9476 96.8034 70.2835 96.8034 70.2835Z" fill="#7C7C7B" transform="matrix(1.10084 0 -0 1 172 79)"/></g></g></g><rect x="0" y="0" width="327.525" height="32" fill="#D0D0D0" transform="matrix(1.00145 0 -0 1 73 188)"/><path d="M0 126.516 7.79585 0 15.5917 126.516Z" fill="#695934" fill-rule="evenodd" transform="matrix(0.404371 0.914595 -0.915488 0.404766 358.893 123.18)"/><path d="M0 0 327.705 0.000104835" stroke="#7C7C7B" stroke-width="1.99711" stroke-miterlimit="8" fill="none" fill-rule="evenodd" transform="matrix(1.00145 0 -0 1 73 220)"/><path d="M-1.99711 154-1.99711 119.849 36.2272 119.849 34.2301 121.846 34.2301 89.3875 67.3823 89.3875 65.3852 91.3846 65.3852 57.2333 100.711 57.2333 98.7143 59.2304 98.7143 27.6183 134.765 27.6183 132.768 29.6154 132.768-2.00276 305.563-1.51445 305.552 2.47974 134.759 1.9971 136.762 0 136.762 31.6125 100.711 31.6125 102.708 29.6154 102.708 61.2275 67.3823 61.2275 69.3794 59.2304 69.3794 93.3817 36.2272 93.3817 38.2243 91.3846 38.2243 123.843 0 123.843 1.99711 121.846 1.99711 154ZM303.588-9.50849 323.531 0.533437 303.532 10.4625Z" fill="#695934" transform="matrix(1.00145 0 -0 1 143 67)"/><g clip-path="url(#clip4)"><g clip-path="url(#clip5)"><g clip-path="url(#clip6)"><path d="M51.523 49.0793 2.45408 49.0793C1.09836 49.0793 0 50.1776 0 51.5345 0 52.8891 1.09836 53.9874 2.45408 53.9874L51.5219 53.9874C52.8776 53.9874 53.9759 52.8891 53.9759 51.5345 53.9748 50.1776 52.8764 49.0793 51.523 49.0793Z" fill="#695934" transform="matrix(1.09259 0 -0 1 365 13)"/><path d="M5.52053 42.6994C4.16481 42.6994 3.06645 43.7977 3.06645 45.1534 3.06645 46.5091 4.16481 47.6087 5.52053 47.6087L48.4554 47.6087C49.8111 47.6087 50.9095 46.5091 50.9095 45.1534 50.9095 43.7977 49.8111 42.6994 48.4554 42.6994L47.843 42.6994 47.843 20.6172 48.4554 20.6172C49.1344 20.6172 49.6813 20.0681 49.6813 19.3914 49.6813 18.7146 49.1321 18.1655 48.4554 18.1655L5.52053 18.1655C4.84267 18.1655 4.29464 18.7146 4.29464 19.3914 4.29464 20.0681 4.84382 20.6172 5.52053 20.6172L6.13405 20.6172 6.13405 42.6982 5.52053 42.6982ZM42.9349 20.6172 42.9349 42.6982 35.5749 42.6982 35.5749 20.6172 42.9349 20.6172ZM30.6668 20.6172 30.6668 42.6982 23.3068 42.6982 23.3068 20.6172 30.6668 20.6172ZM11.0399 20.6172 18.3998 20.6172 18.3998 42.6982 11.0399 42.6982 11.0399 20.6172Z" fill="#695934" transform="matrix(1.09259 0 -0 1 365 13)"/><path d="M2.45408 15.9596 51.5219 15.9596C51.5299 15.9596 51.5391 15.9596 51.546 15.9596 52.9029 15.9596 54.0001 14.8612 54.0001 13.5055 54.0001 12.4278 53.3061 11.5144 52.3422 11.1835L27.9967 0.228634C27.3568-0.0585946 26.6249-0.0585946 25.9838 0.228634L1.44763 11.2685C0.391779 11.7442-0.188422 12.8908 0.0551478 14.0213 0.297568 15.1519 1.29712 15.9596 2.45408 15.9596Z" fill="#695934" transform="matrix(1.09259 0 -0 1 365 13)"/></g></g></g><path d="M4.62715 42.5265C4.75848 42.534 4.88799 42.5404 5.01931 42.5404 7.61301 42.5404 9.81467 40.7375 10.0188 38.3655L11.4438 21.7899 21.0756 15.5305 21.0756 39.5745C21.0756 40.7834 21.4381 41.9115 22.0183 42.9086L11.2061 83.3063C10.4276 86.2264 12.4155 89.1581 15.6467 89.8613 16.1251 89.9641 16.5997 90.0099 17.0685 90.0099 19.7877 90.0099 22.2521 88.3411 22.9186 85.856L33.2214 47.3563 44.9293 52.391 43.9473 66.682C43.7412 69.6728 46.2622 72.2543 49.5836 72.4379 49.713 72.4454 49.8386 72.4489 49.9642 72.4489 53.1201 72.4489 55.7711 70.232 55.9707 67.3537L57.2096 49.4037C57.3583 47.1936 56.01 45.1185 53.7872 44.1673L37.1403 37.0109 37.1403 21.1169 42.9627 27.3838C43.7902 28.2751 44.9666 28.8442 46.2423 28.9748L63.9458 30.7853C64.1377 30.8026 64.3257 30.8136 64.5182 30.8136 67.0353 30.8136 69.2073 29.1077 69.4977 26.7991 69.8113 24.3151 67.8273 22.0732 65.0746 21.7905L49.3672 20.1873 36.5692 6.41385C36.1887 5.5388 35.6259 4.74848 34.92 4.07668 34.2492 1.73614 31.9129 0 29.1093 0 27.0217 0 25.1865 0.955191 24.1059 2.40619L3.69024 15.6757C2.49442 16.4549 1.73526 17.6714 1.62389 18.9952L0.015962 37.6613C-0.203636 40.1581 1.86465 42.336 4.62715 42.5265Z" fill="#7C7C7B" fill-rule="evenodd" transform="matrix(1.00145 0 -0 1 101 115)"/><path d="M24.4119 11.205C24.4119 17.3933 18.947 22.41 12.2059 22.41 5.46476 22.41 0 17.3933 0 11.205 0 5.01663 5.46476 0 12.2059 0 18.947 0 24.4119 5.01663 24.4119 11.205Z" fill="#7C7C7B" fill-rule="evenodd" transform="matrix(1.00145 0 -0 1 123 92)"/><path d="M0 13C-3.68674e-15 5.82031 6.48248-1.84337e-15 14.479-1.84337e-15 22.4756-5.53012e-15 28.958 5.82031 28.958 13L14.479 13Z" fill="#7C7C7B" fill-rule="evenodd" transform="matrix(1.00145 0 -0 1 227 175)"/><rect x="0" y="0" width="19.9711" height="22" fill="#D7B169" transform="matrix(1.00145 0 -0 1 159 198)"/><rect x="0" y="0" width="19.9711" height="55" fill="#D7B169" transform="matrix(1.00145 0 -0 1 192 165)"/><rect x="0" y="0" width="19.9711" height="87" fill="#D7B169" transform="matrix(1.00145 0 -0 1 226 133)"/><rect x="0" y="0" width="19.9711" height="115" fill="#D7B169" transform="matrix(1.00145 0 -0 1 259 105)"/><rect x="0" y="0" width="19.9711" height="143" fill="#D7B169" transform="matrix(1.00145 0 -0 1 293 77)"/><path d="M0 3.24537 119.509 3.24537 119.509 0 126 6.49059 119.509 12.9812 119.509 9.73596 0 9.73596Z" fill="#FFFFFF" fill-rule="evenodd" transform="matrix(-4.37114e-08 -1 1.00145 -4.37747e-08 296 220)"/><path d="M0 3.24536 100.509 3.24536 100.509 0 107 6.49059 100.509 12.9812 100.509 9.73595 0 9.73595Z" fill="#FFFFFF" fill-rule="evenodd" transform="matrix(-4.37114e-08 -1 1.00145 -4.37747e-08 264 220)"/><path d="M0 3.24532 74.5094 3.24532 74.5094 0 81 6.49064 74.5094 12.9812 74.5094 9.73587 0 9.73587Z" fill="#FFFFFF" fill-rule="evenodd" transform="matrix(-4.37114e-08 -1 1.00145 -4.37747e-08 229 220)"/><path d="M0 3.2453 43.5094 3.2453 43.5094 0 50 6.49059 43.5094 12.9812 43.5094 9.73589 0 9.73589Z" fill="#FFFFFF" fill-rule="evenodd" transform="matrix(-4.37114e-08 -1 1.00145 -4.37747e-08 195 220)"/><path d="M0 3.24529 12.5094 3.24529 12.5094 0 19 6.4906 12.5094 12.9812 12.5094 9.7359 0 9.7359Z" fill="#FFFFFF" fill-rule="evenodd" transform="matrix(-4.37114e-08 -1 1.00145 -4.37747e-08 163 220)"/></g></svg>